<?xml version="1.0" standalone="no"?>
<!DOCTYPE svg PUBLIC "-//W3C//DTD SVG 20010904//EN"
 "http://www.w3.org/TR/2001/REC-SVG-20010904/DTD/svg10.dtd">
<svg version="1.0" xmlns="http://www.w3.org/2000/svg"
 width="388.000000pt" height="103.000000pt" viewBox="0 0 388.000000 103.000000"
 preserveAspectRatio="xMidYMid meet">

<g transform="translate(0.000000,103.000000) scale(0.100000,-0.100000)"
fill="#000000" stroke="none">
<path d="M483 810 c26 -4 64 -17 85 -28 l37 -19 3 -141 3 -140 -27 -21 c-23
-18 -40 -21 -125 -21 -81 0 -99 -3 -99 -15 0 -13 93 -15 778 -15 710 0 875 5
765 23 -21 4 -304 7 -629 7 -583 0 -592 0 -618 21 -26 20 -26 22 -26 153 0
125 1 134 23 154 12 12 50 28 82 37 l60 15 -63 -4 c-34 -2 -73 -11 -86 -19
-21 -14 -26 -14 -45 -1 -12 9 -52 17 -94 19 -65 4 -67 3 -24 -5z"/>
<path d="M441 763 c-21 -11 -44 -36 -59 -63 -64 -121 41 -268 164 -228 l39 13
3 131 c3 149 1 154 -71 161 -28 3 -53 -2 -76 -14z m127 -15 c8 -7 12 -46 12
-128 0 -115 0 -117 -25 -128 -115 -52 -221 88 -157 207 33 62 123 88 170 49z"/>
<path d="M680 767 c-25 -12 -25 -15 -28 -144 l-3 -131 41 -16 c123 -49 237
101 171 224 -36 69 -118 99 -181 67z m127 -22 c45 -30 69 -109 51 -169 -23
-73 -102 -113 -168 -86 l-30 12 0 120 0 119 33 14 c36 17 79 13 114 -10z"/>
<path d="M946 644 c-8 -103 -8 -124 4 -124 5 0 10 37 12 83 l3 82 20 -80 c12
-44 25 -79 30 -78 6 1 20 37 32 80 l21 78 2 -55 c4 -110 18 -119 19 -12 1 79
-2 102 -12 102 -13 0 -20 -18 -48 -120 l-12 -45 -21 79 c-11 44 -26 81 -32 83
-7 2 -13 -24 -18 -73z"/>
<path d="M1137 620 c-16 -64 -21 -100 -13 -97 6 2 12 16 14 30 3 23 8 27 33
27 25 0 30 -5 36 -30 5 -26 23 -43 23 -22 1 30 -46 192 -56 192 -6 0 -23 -44
-37 -100z m40 -18 c-26 -5 -27 -2 -15 48 l12 45 11 -45 c10 -41 10 -45 -8 -48z"/>
<path d="M1260 620 c0 -60 4 -100 10 -100 6 0 10 18 10 40 0 33 4 40 19 40 21
0 31 -19 31 -56 0 -13 5 -24 11 -24 8 0 9 12 4 38 -8 43 -8 56 0 98 8 38 -14
64 -56 64 l-29 0 0 -100z m68 52 c4 -26 -13 -52 -34 -52 -10 0 -14 13 -14 41
0 36 2 40 23 37 14 -2 23 -11 25 -26z"/>
<path d="M1380 620 c0 -60 4 -100 10 -100 6 0 10 40 10 100 0 60 -4 100 -10
100 -6 0 -10 -40 -10 -100z"/>
<path d="M1442 708 c-7 -7 -12 -27 -12 -44 0 -26 6 -37 29 -50 16 -10 32 -26
34 -36 7 -26 -19 -49 -49 -42 -14 4 -24 2 -24 -5 0 -6 11 -13 25 -17 55 -14
88 63 45 106 -11 11 -24 20 -29 20 -13 0 -21 27 -15 45 4 9 19 15 36 15 17 0
27 4 23 10 -9 14 -48 13 -63 -2z"/>
<path d="M1540 620 l0 -100 40 0 c22 0 40 5 40 10 0 6 -13 10 -30 10 -28 0
-30 3 -30 35 0 32 2 35 30 35 17 0 30 5 30 10 0 6 -13 10 -30 10 -28 0 -30 3
-30 35 0 32 2 35 30 35 17 0 30 5 30 10 0 6 -18 10 -40 10 l-40 0 0 -100z"/>
<path d="M1650 620 l0 -100 40 0 c22 0 40 5 40 10 0 6 -13 10 -30 10 l-30 0 0
90 c0 53 -4 90 -10 90 -6 0 -10 -40 -10 -100z"/>
<path d="M1769 620 c-16 -60 -22 -99 -16 -97 7 2 14 14 17 28 5 19 12 24 35
24 23 0 30 -5 35 -24 3 -14 11 -26 17 -28 7 -3 1 35 -14 97 -14 55 -31 100
-37 100 -6 0 -23 -45 -37 -100z m61 -17 c0 -2 -11 -3 -24 -3 -23 0 -23 1 -13
46 l11 46 13 -44 c7 -23 13 -44 13 -45z"/>
<path d="M1955 695 c-21 -20 -25 -34 -25 -80 0 -46 4 -60 25 -80 25 -25 41
-30 69 -19 25 10 18 25 -8 18 -39 -9 -66 25 -66 84 0 56 20 82 63 82 15 0 27
5 27 10 0 20 -61 10 -85 -15z"/>
<path d="M2105 708 c-10 -32 -45 -169 -45 -178 0 -23 18 -8 24 20 5 25 10 30
36 30 22 0 30 -5 30 -17 0 -21 17 -50 24 -42 5 4 -2 33 -35 162 -10 37 -26 49
-34 25z m29 -80 c5 -24 3 -28 -14 -28 -22 0 -24 9 -13 61 7 35 12 29 27 -33z"/>
<path d="M2212 708 c-23 -23 -14 -63 23 -95 19 -17 35 -36 35 -41 0 -20 -32
-43 -51 -37 -10 4 -19 2 -19 -4 0 -15 37 -23 58 -12 24 13 36 55 23 80 -6 10
-22 26 -36 35 -35 23 -31 60 8 64 15 2 27 8 27 13 0 13 -54 11 -68 -3z"/>
<path d="M2290 710 c0 -5 11 -10 25 -10 25 0 25 -1 25 -90 0 -53 4 -90 10 -90
6 0 10 37 10 90 0 89 0 90 25 90 14 0 25 5 25 10 0 6 -27 10 -60 10 -33 0 -60
-4 -60 -10z"/>
<path d="M2420 620 c0 -60 4 -100 10 -100 6 0 10 17 10 38 0 21 3 42 6 45 11
11 44 -13 44 -33 0 -25 10 -50 21 -50 10 0 0 60 -13 76 -5 7 -2 23 6 39 24 46
1 85 -50 85 l-34 0 0 -100z m68 68 c16 -16 15 -33 -4 -52 -28 -28 -44 -20 -44
24 0 32 4 40 18 40 10 0 23 -5 30 -12z"/>
<path d="M2561 701 c-27 -27 -36 -91 -18 -134 40 -95 127 -57 127 56 0 80 -62
125 -109 78z m71 -18 c26 -23 25 -106 -2 -133 -25 -25 -32 -25 -53 -2 -26 28
-31 74 -13 115 16 41 38 47 68 20z"/>
<path d="M2757 620 c-15 -62 -21 -100 -14 -97 6 2 14 14 17 28 5 19 12 24 35
24 23 0 30 -5 35 -24 3 -14 10 -26 16 -28 6 -2 -1 42 -15 97 -14 55 -31 100
-37 100 -6 0 -23 -45 -37 -100z m63 -17 c0 -2 -12 -3 -26 -3 -19 0 -24 4 -20
18 3 9 8 30 12 46 7 30 7 30 20 -15 8 -24 14 -45 14 -46z"/>
<path d="M2880 621 c0 -109 8 -123 58 -98 20 9 28 21 30 45 2 18 -1 39 -7 45
-6 8 -6 18 -1 27 24 38 -2 80 -51 80 l-29 0 0 -99z m67 63 c8 -20 -8 -48 -31
-52 -12 -3 -16 4 -16 32 0 30 4 36 20 36 11 0 23 -7 27 -16z m1 -102 c4 -26
-13 -52 -34 -52 -10 0 -14 13 -14 41 0 36 2 40 23 37 14 -2 23 -11 25 -26z"/>
<path d="M3031 683 c-5 -21 -15 -58 -21 -83 -6 -25 -13 -53 -16 -62 -3 -10 -1
-18 5 -18 5 0 12 14 16 30 6 25 11 30 36 30 25 0 30 -5 36 -30 5 -29 23 -43
23 -17 -2 32 -48 181 -58 185 -6 2 -15 -14 -21 -35z m38 -65 c1 -12 -6 -18
-20 -18 -18 0 -20 4 -14 33 4 17 10 36 13 42 6 10 19 -26 21 -57z"/>
<path d="M3142 618 l3 -103 34 2 c50 2 73 31 79 97 4 48 2 57 -21 80 -18 18
-37 26 -62 26 l-36 0 3 -102z m82 60 c36 -51 9 -135 -44 -140 -24 -3 -25 -1
-28 66 -2 38 -1 75 2 83 8 21 53 15 70 -9z"/>
<path d="M381 322 c-14 -26 -14 -32 1 -32 6 0 8 3 5 7 -4 3 -2 12 5 20 6 7 8
16 5 19 -3 3 -10 -3 -16 -14z"/>
<path d="M510 308 c0 -25 3 -29 10 -18 9 13 11 13 20 0 8 -13 10 -12 10 3 0 9
-7 17 -15 17 -8 0 -15 5 -15 11 0 6 7 8 16 5 8 -3 12 -2 9 4 -14 23 -35 9 -35
-22z"/>
<path d="M645 319 c-4 -12 -2 -26 3 -31 8 -8 9 -4 5 10 -6 25 22 41 39 24 9
-9 7 -17 -7 -32 -15 -17 -16 -20 -3 -15 22 9 31 35 17 51 -17 21 -47 17 -54
-7z"/>
<path d="M807 333 c-10 -9 -9 -41 2 -47 4 -3 6 5 4 18 -4 19 0 25 18 29 21 4
22 4 3 6 -11 0 -24 -2 -27 -6z"/>
<path d="M967 333 c-4 -3 -7 -11 -7 -17 0 -6 5 -5 12 2 6 6 9 14 7 17 -3 3 -9
2 -12 -2z"/>
<path d="M1091 308 c2 -31 2 -31 6 -5 3 15 11 27 19 27 20 0 30 -30 13 -41
-10 -6 -11 -9 -1 -9 19 0 26 28 12 45 -7 8 -21 15 -31 15 -15 0 -19 -7 -18
-32z"/>
<path d="M1250 330 c0 -5 5 -10 11 -10 5 0 7 5 4 10 -3 6 -8 10 -11 10 -2 0
-4 -4 -4 -10z"/>
<path d="M1842 310 c-7 -18 -7 -28 -2 -25 6 4 10 14 10 23 1 13 5 10 16 -8
l15 -25 -7 25 c-10 40 -21 44 -32 10z"/>
<path d="M2000 333 c0 -5 10 -19 21 -33 11 -14 18 -18 15 -10 -3 8 -9 23 -12
33 -6 17 -24 24 -24 10z"/>
<path d="M2150 328 c6 -7 11 -21 11 -32 1 -21 1 -21 6 -1 3 11 10 27 17 35 9
13 9 13 -5 3 -10 -8 -19 -9 -27 -3 -9 7 -9 7 -2 -2z"/>
<path d="M2280 310 c0 -26 2 -29 14 -18 10 9 11 15 2 21 -8 5 -7 10 4 17 13 8
12 10 -2 10 -13 0 -18 -8 -18 -30z"/>
<path d="M2411 308 c0 -18 3 -27 6 -20 4 9 8 10 18 2 11 -9 12 -7 8 9 -3 12
-9 18 -14 15 -5 -3 -9 -1 -9 5 0 5 6 12 13 14 7 3 5 6 -5 6 -14 1 -18 -7 -17
-31z"/>
<path d="M2880 333 c0 -6 5 -15 10 -18 6 -4 8 -11 5 -16 -4 -5 -1 -9 4 -9 15
0 14 13 -4 36 -8 10 -15 14 -15 7z"/>
<path d="M3035 329 c-4 -6 -5 -12 -2 -15 2 -3 7 2 10 11 7 17 1 20 -8 4z"/>
<path d="M3142 328 c-14 -14 -16 -35 -4 -42 5 -3 8 5 8 17 -1 13 6 23 17 25
22 4 35 -27 16 -39 -10 -6 -11 -9 -1 -9 19 0 26 28 12 45 -15 18 -32 19 -48 3z"/>
<path d="M3297 333 c-10 -9 -9 -41 2 -47 4 -3 6 5 4 18 -4 19 0 25 18 29 21 4
22 4 3 6 -11 0 -24 -2 -27 -6z"/>
<path d="M3450 320 c-6 -12 -9 -24 -7 -27 3 -2 11 5 17 17 6 12 9 24 7 27 -3
2 -11 -5 -17 -17z"/>
<path d="M3576 332 c7 -4 14 -18 16 -32 3 -23 4 -22 9 8 5 27 3 32 -15 32 -13
0 -17 -3 -10 -8z"/>
<path d="M1711 314 c0 -11 3 -14 6 -6 3 7 2 16 -1 19 -3 4 -6 -2 -5 -13z"/>
<path d="M3000 324 c0 -6 7 -19 15 -30 8 -10 14 -14 14 -9 0 6 -6 19 -14 29
-8 11 -15 15 -15 10z"/>
<path d="M1490 310 c0 -5 5 -10 11 -10 5 0 7 5 4 10 -3 6 -8 10 -11 10 -2 0
-4 -4 -4 -10z"/>
<path d="M2655 310 c-3 -5 -1 -10 4 -10 6 0 11 5 11 10 0 6 -2 10 -4 10 -3 0
-8 -4 -11 -10z"/>
<path d="M400 301 c0 -6 4 -13 10 -16 6 -3 7 1 4 9 -7 18 -14 21 -14 7z"/>
<path d="M980 301 c0 -6 4 -13 10 -16 6 -3 7 1 4 9 -7 18 -14 21 -14 7z"/>
<path d="M1987 303 c-4 -3 -7 -11 -7 -17 0 -6 5 -5 12 2 6 6 9 14 7 17 -3 3
-9 2 -12 -2z"/>
<path d="M3470 301 c0 -6 4 -13 10 -16 6 -3 7 1 4 9 -7 18 -14 21 -14 7z"/>
<path d="M950 289 c0 -5 5 -7 10 -4 6 3 10 8 10 11 0 2 -4 4 -10 4 -5 0 -10
-5 -10 -11z"/>
</g>
</svg>
