<?xml version="1.0" standalone="no"?>
<!DOCTYPE svg PUBLIC "-//W3C//DTD SVG 20010904//EN"
 "http://www.w3.org/TR/2001/REC-SVG-20010904/DTD/svg10.dtd">
<svg version="1.0" xmlns="http://www.w3.org/2000/svg"
 width="62.000000pt" height="52.000000pt" viewBox="0 0 62.000000 52.000000"
 preserveAspectRatio="xMidYMid meet">

<g transform="translate(0.000000,52.000000) scale(0.100000,-0.100000)"
fill="#000000" stroke="none">
<path d="M200 461 c0 -5 13 -11 30 -14 16 -4 39 -16 50 -27 18 -18 20 -33 20
-153 0 -170 0 -170 -141 -177 -55 -3 -100 -9 -102 -15 -1 -6 99 -11 281 -13
246 -2 282 0 282 13 0 13 -20 15 -125 15 -120 0 -127 1 -150 25 -24 23 -25 29
-25 153 0 120 1 130 23 150 12 11 34 24 50 27 15 4 27 11 27 16 0 13 -13 11
-65 -6 -40 -14 -50 -14 -90 0 -52 17 -65 19 -65 6z"/>
<path d="M135 411 c-84 -52 -105 -143 -53 -229 25 -41 66 -62 115 -61 37 2 36
2 -9 8 -144 20 -169 221 -35 281 23 10 35 19 27 19 -8 1 -28 -7 -45 -18z"/>
<path d="M221 417 c14 -7 33 -18 43 -26 10 -8 16 -9 16 -2 0 12 -52 41 -72 40
-7 0 -1 -6 13 -12z"/>
<path d="M373 415 l-33 -14 2 -108 2 -108 5 105 c6 99 7 105 31 117 33 17 65
16 100 -2 92 -48 105 -173 25 -244 -45 -39 -106 -43 -142 -9 -13 12 -23 16
-23 10 0 -20 44 -42 85 -42 22 0 54 9 73 20 37 22 71 88 72 134 0 49 -36 110
-79 134 -45 25 -73 27 -118 7z"/>
<path d="M258 148 c-10 -10 -14 -18 -9 -18 10 0 36 29 30 34 -2 1 -12 -6 -21
-16z"/>
</g>
</svg>
