<?xml version="1.0" standalone="no"?>
<!DOCTYPE svg PUBLIC "-//W3C//DTD SVG 20010904//EN"
 "http://www.w3.org/TR/2001/REC-SVG-20010904/DTD/svg10.dtd">
<svg version="1.0" xmlns="http://www.w3.org/2000/svg"
 width="512.000000pt" height="512.000000pt" viewBox="0 0 512.000000 512.000000"
 preserveAspectRatio="xMidYMid meet">

<g transform="translate(0.000000,512.000000) scale(0.100000,-0.100000)"
fill="#000000" stroke="none">
<path d="M1397 4990 c-338 -61 -632 -221 -878 -478 -205 -213 -344 -478 -410
-779 -33 -152 -38 -430 -11 -589 27 -155 70 -290 138 -431 30 -62 54 -117 54
-123 0 -5 -64 -137 -142 -294 -164 -330 -170 -351 -121 -446 40 -79 93 -113
181 -118 l67 -3 314 155 c173 85 323 162 333 170 29 25 33 64 11 94 -37 50
-55 45 -383 -118 -171 -84 -317 -150 -332 -150 -31 0 -68 31 -68 58 0 9 70
162 156 339 l157 322 -66 128 c-70 138 -114 258 -143 393 -27 120 -27 448 -1
570 125 585 555 1018 1137 1146 68 15 127 19 295 19 192 0 220 -3 321 -27 565
-134 983 -562 1106 -1131 18 -83 22 -136 22 -282 1 -199 -12 -287 -66 -455
-119 -372 -399 -693 -751 -860 -316 -151 -668 -188 -983 -104 -143 38 -168 40
-193 15 -27 -27 -28 -82 -2 -105 11 -10 55 -28 99 -41 143 -42 267 -58 434
-59 l158 -1 0 -55 c0 -127 35 -324 81 -465 140 -420 450 -768 851 -954 440
-205 957 -198 1389 19 l99 50 298 -146 297 -145 67 3 c88 5 141 39 181 118 49
95 43 116 -123 450 l-144 289 52 108 c111 236 151 402 159 663 6 204 -10 335
-61 512 l-26 88 37 47 c90 118 140 291 129 445 -11 167 -70 293 -196 419 -69
71 -100 94 -170 127 -223 107 -463 91 -664 -43 l-67 -45 -77 24 c-97 30 -247
62 -334 71 -63 7 -68 6 -92 -18 -31 -31 -33 -65 -6 -100 16 -20 32 -26 82 -32
74 -8 180 -29 260 -51 l56 -16 -33 -62 c-57 -105 -80 -195 -80 -321 0 -192 56
-326 195 -466 70 -70 101 -94 170 -127 219 -105 420 -94 661 35 10 5 46 -150
60 -252 15 -113 6 -372 -16 -475 -27 -126 -82 -275 -146 -401 l-62 -120 43
-92 c24 -51 94 -194 157 -319 62 -125 113 -237 113 -248 0 -29 -35 -60 -68
-60 -17 0 -157 64 -331 150 -166 83 -311 150 -322 150 -11 0 -66 -25 -122 -55
-119 -63 -302 -127 -437 -152 -128 -23 -381 -23 -507 0 -308 58 -564 194 -783
416 -250 253 -398 589 -417 945 l-6 112 93 23 c439 108 830 416 1039 821 68
132 120 277 152 430 33 154 33 448 1 608 -44 219 -119 404 -235 580 -237 359
-591 600 -1016 693 -143 32 -464 36 -614 9z m3149 -1701 c266 -48 457 -312
415 -577 -58 -373 -478 -559 -791 -350 -113 75 -186 187 -216 328 -18 87 -13
164 17 258 78 238 328 386 575 341z"/>
<path d="M4665 3000 c-11 -4 -74 -63 -140 -129 l-119 -120 -77 74 c-65 64 -82
75 -111 75 -42 0 -78 -34 -78 -75 0 -22 22 -51 111 -141 61 -62 122 -115 135
-118 39 -10 71 14 232 176 130 132 152 159 152 185 0 55 -56 95 -105 73z"/>
<path d="M2286 3999 c-62 -15 -153 -68 -197 -116 -51 -55 -98 -155 -101 -212
-2 -52 26 -84 72 -84 42 0 64 26 84 96 57 198 317 236 433 64 100 -149 4 -352
-177 -374 -37 -4 -61 -14 -77 -29 -22 -22 -23 -31 -23 -158 0 -74 3 -142 6
-151 10 -24 60 -46 89 -39 44 11 55 39 55 140 l0 91 43 12 c65 19 120 55 170
111 57 63 86 122 100 204 21 125 -18 242 -112 336 -101 100 -233 140 -365 109z"/>
<path d="M1176 3969 c-19 -15 -26 -30 -26 -55 0 -27 -4 -34 -22 -38 -180 -35
-277 -79 -374 -169 l-69 -64 -4 -87 c-2 -67 -6 -86 -17 -86 -23 0 -64 -47 -64
-73 0 -13 9 -36 21 -51 20 -25 23 -26 135 -26 109 0 116 1 139 25 14 13 25 31
25 39 0 33 -25 66 -57 78 -32 12 -33 14 -33 64 0 47 3 55 37 85 50 43 172 99
233 106 l50 6 0 -289 0 -289 -111 -99 c-62 -55 -120 -114 -130 -130 -40 -65
-11 -152 61 -188 50 -26 454 -27 506 -2 63 30 93 121 63 187 -6 14 -62 71
-125 127 l-114 102 0 290 0 291 44 -6 c68 -10 150 -44 210 -89 l56 -41 0 -59
c0 -42 -4 -58 -14 -58 -7 0 -25 -9 -40 -21 -33 -26 -36 -79 -6 -109 18 -18 33
-20 135 -20 102 0 117 2 135 20 30 30 27 83 -6 109 -15 12 -33 21 -40 21 -11
0 -14 20 -14 87 l0 88 -62 58 c-76 71 -213 141 -308 158 -36 6 -70 13 -76 14
-6 2 -14 21 -18 44 -10 67 -68 91 -120 50z m134 -1039 l75 -70 -160 0 -160 1
75 69 c41 39 80 70 85 70 6 -1 44 -32 85 -70z"/>
<path d="M2325 2835 c-14 -13 -25 -36 -25 -50 0 -33 41 -75 73 -75 40 0 77 36
77 75 0 24 -7 39 -26 54 -35 28 -69 26 -99 -4z"/>
<path d="M2593 1898 c-48 -23 -51 -103 -4 -127 28 -15 1744 -15 1772 0 48 25
44 105 -7 128 -34 15 -1729 14 -1761 -1z"/>
<path d="M2579 1581 c-17 -13 -23 -29 -23 -56 0 -27 6 -43 23 -56 22 -18 58
-19 891 -19 478 0 876 3 885 6 24 10 46 60 39 89 -14 58 28 55 -920 55 -837 0
-873 -1 -895 -19z"/>
<path d="M2575 1265 c-14 -13 -25 -31 -25 -39 0 -28 22 -64 47 -75 34 -16
1722 -16 1757 0 51 23 55 103 7 128 -13 8 -296 11 -891 11 l-871 0 -24 -25z"/>
<path d="M3163 975 c-55 -24 -57 -105 -3 -132 36 -18 594 -18 630 0 55 28 52
109 -5 133 -49 20 -575 20 -622 -1z"/>
</g>
</svg>
